<svg width="494" height="530" viewBox="0 0 494 530" fill="none" xmlns="http://www.w3.org/2000/svg">
<g clip-path="url(#clip0_386_62)">
<path d="M347.82 142.07C354.553 147.155 359.491 153.311 360.75 161.875C361.479 170.691 360.418 178.782 354.57 185.789C351.049 189.672 347.414 193.419 343.697 197.114C343.102 197.708 342.508 198.301 341.913 198.895C340.37 200.436 338.826 201.974 337.281 203.512C335.695 205.091 334.112 206.672 332.529 208.252C329.437 211.336 326.344 214.419 323.25 217.5C323.976 218.08 323.976 218.08 324.718 218.672C332.083 224.575 337.799 230.389 339.5 240C340.226 249.173 340.226 249.173 338.875 251.875C339.661 252.094 340.448 252.313 341.258 252.539C348.741 255.088 354.446 259.941 358.021 267.021C359.52 270.534 360.827 273.813 360.833 277.661C360.834 278.155 360.835 278.649 360.835 279.158C360.833 279.668 360.831 280.178 360.828 280.703C360.831 281.218 360.833 281.733 360.835 282.263C360.829 286.092 360.829 286.092 360.125 287.5C360.496 287.577 360.868 287.655 361.251 287.734C367.905 289.39 373.803 293.656 377.625 299.375C381.881 307.328 383.266 315.116 381.595 324.038C379.045 332.342 373.46 338.281 367.441 344.247C366.668 345.023 365.896 345.799 365.124 346.575C363.041 348.666 360.951 350.75 358.859 352.831C356.662 355.02 354.471 357.215 352.279 359.409C348.599 363.091 344.914 366.767 341.226 370.441C336.973 374.677 332.727 378.921 328.486 383.17C324.392 387.271 320.292 391.367 316.19 395.461C314.45 397.196 312.713 398.934 310.977 400.673C308.93 402.723 306.878 404.768 304.823 406.81C304.073 407.557 303.324 408.305 302.578 409.054C292.983 418.684 283.314 425.211 269.334 425.261C268.438 425.258 267.542 425.256 266.646 425.253C265.685 425.256 264.723 425.26 263.761 425.266C261.17 425.277 258.579 425.276 255.987 425.272C253.819 425.271 251.65 425.274 249.482 425.278C244.367 425.287 239.253 425.286 234.139 425.279C228.868 425.272 223.598 425.28 218.328 425.297C213.792 425.311 209.257 425.315 204.722 425.311C202.018 425.309 199.313 425.311 196.609 425.322C194.069 425.331 191.529 425.329 188.989 425.317C188.058 425.315 187.128 425.317 186.197 425.323C184.925 425.332 183.652 425.323 182.38 425.313C181.669 425.313 180.957 425.313 180.225 425.313C176.617 424.741 174.245 422.401 171.732 419.891C170.954 419.118 170.954 419.118 170.16 418.33C169.603 417.77 169.046 417.21 168.472 416.633C167.87 416.033 167.268 415.434 166.666 414.834C165.038 413.212 163.415 411.587 161.793 409.961C160.092 408.257 158.388 406.556 156.685 404.854C153.826 401.998 150.971 399.14 148.117 396.28C144.818 392.974 141.515 389.673 138.21 386.375C135.368 383.539 132.53 380.702 129.693 377.862C128 376.167 126.307 374.473 124.611 372.781C123.018 371.192 121.428 369.599 119.84 368.004C118.979 367.141 118.115 366.28 117.251 365.42C116.483 364.647 116.483 364.647 115.7 363.859C115.255 363.413 114.809 362.967 114.35 362.507C112.347 360.218 111.808 358.411 111.766 355.391C111.748 354.819 111.73 354.247 111.712 353.657C112.176 350.784 113.466 348.909 115.753 347.175C116.776 346.501 117.803 345.833 118.833 345.171C128.505 338.832 139.319 329.937 142.226 318.192C143.948 309.757 144.045 301.086 144.048 292.507C144.049 291.854 144.049 291.201 144.049 290.527C144.03 282.372 143.779 274.229 143.448 266.08C143.139 258.364 143.003 250.645 142.87 242.924C142.823 240.21 142.775 237.497 142.726 234.783C142.714 234.127 142.702 233.47 142.69 232.794C142.603 228.288 142.467 223.785 142.311 219.281C142.254 217.505 142.198 215.728 142.142 213.951C142.105 212.84 142.063 211.73 142.015 210.62C141.951 209.106 141.902 207.591 141.856 206.076C141.833 205.638 141.81 205.2 141.786 204.75C141.701 201.058 143.158 199.061 145.486 196.353C153.283 189.175 163.988 185.714 174.493 186.079C185.475 187.076 195.398 191.576 202.625 200C210.051 209.146 211.851 220.418 214.299 231.633C214.39 232.051 214.482 232.469 214.576 232.9C214.828 234.054 215.078 235.209 215.327 236.363C215.669 238.081 215.669 238.081 216.375 239.375C216.862 238.884 217.349 238.392 217.85 237.886C229.72 225.904 241.605 213.938 253.505 201.986C259.26 196.205 265.01 190.421 270.748 184.625C275.753 179.57 280.766 174.525 285.79 169.49C288.447 166.826 291.1 164.158 293.743 161.479C296.235 158.952 298.739 156.438 301.253 153.932C302.168 153.015 303.079 152.094 303.986 151.168C315.839 139.075 332.064 131.597 347.82 142.07ZM319.576 163.448C319.167 163.856 318.757 164.264 318.335 164.684C316.971 166.046 315.614 167.413 314.256 168.781C313.277 169.761 312.297 170.74 311.317 171.719C308.662 174.374 306.013 177.034 303.365 179.695C300.595 182.477 297.819 185.254 295.044 188.031C290.389 192.691 285.737 197.355 281.087 202.021C276.3 206.826 271.51 211.629 266.717 216.43C266.274 216.874 266.274 216.874 265.821 217.327C264.338 218.813 262.854 220.299 261.371 221.785C249.075 234.101 236.785 246.423 224.5 258.75C225.515 260.886 226.712 262.408 228.289 264.18C238.09 276.048 242.483 291.605 241.375 306.875C239.999 320.025 235.284 332.002 226.375 341.875C225.992 342.322 225.608 342.769 225.213 343.23C222.805 345.722 221.039 346.546 217.547 346.68C214.425 346.471 212.377 346.06 210.125 343.75C208.109 340.375 207.964 337.514 208.875 333.75C209.859 331.933 210.936 330.462 212.359 328.965C219.667 321.214 222.867 310.703 222.762 300.198C221.932 287.615 216.03 277.569 206.729 269.268C200.693 263.836 199.863 256.148 198.191 248.486C197.841 246.915 197.49 245.343 197.139 243.772C196.598 241.331 196.059 238.89 195.523 236.449C194.998 234.067 194.466 231.687 193.934 229.307C193.777 228.582 193.62 227.857 193.458 227.11C191.79 219.692 189.387 212.75 182.703 208.516C177.536 205.665 172.624 204.828 166.883 206.484C164.939 207.091 163.186 207.825 161.375 208.75C161.374 209.359 161.372 209.967 161.37 210.594C161.334 225.398 161.286 240.201 161.228 255.005C161.2 262.164 161.175 269.323 161.158 276.482C161.144 282.721 161.123 288.96 161.095 295.199C161.08 298.503 161.068 301.807 161.064 305.111C161.06 308.221 161.048 311.331 161.029 314.441C161.023 315.582 161.021 316.723 161.022 317.865C161.023 319.424 161.012 320.982 160.999 322.541C161.002 322.992 161.005 323.443 161.008 323.908C160.949 328.153 159.446 330.921 156.482 333.856C155.769 334.569 155.769 334.569 155.042 335.296C154.532 335.796 154.022 336.296 153.497 336.812C152.972 337.333 152.448 337.855 151.907 338.393C150.237 340.053 148.56 341.706 146.883 343.359C145.747 344.486 144.611 345.613 143.476 346.741C140.697 349.499 137.913 352.251 135.125 355C135.356 355.26 135.587 355.52 135.825 355.788C138.171 358.47 140.25 361.254 142.285 364.175C154.648 381.533 171.051 404.147 193.322 408.076C205.383 409.956 217.653 409.753 229.813 409.258C230.283 409.239 230.753 409.221 231.237 409.202C243.81 408.699 256.394 407.887 268.875 406.25C269.768 406.139 269.768 406.139 270.68 406.026C277.208 405.057 281.475 402.161 286.03 397.524C286.457 397.099 286.885 396.674 287.325 396.236C288.721 394.844 290.108 393.444 291.495 392.043C292.467 391.07 293.44 390.096 294.413 389.123C296.443 387.091 298.469 385.055 300.491 383.016C303.089 380.397 305.695 377.786 308.304 375.179C310.309 373.173 312.31 371.165 314.311 369.155C315.271 368.19 316.233 367.227 317.195 366.264C318.532 364.924 319.866 363.579 321.198 362.233C321.598 361.834 321.999 361.434 322.411 361.022C324.428 359.271 324.428 359.271 325.125 356.875C324.105 356.215 323.058 355.598 322 355C316.06 351.305 312.348 345.979 310.125 339.375C309.764 337.544 309.477 335.74 309.283 333.884C309.008 332.43 309.008 332.43 307.808 331.733C306.172 331.181 304.548 330.793 302.859 330.43C295.372 328.599 289.662 325.071 285.281 318.672C282.376 313.862 280.967 308.646 280.125 303.125C279.58 303.033 279.036 302.941 278.475 302.847C270.696 301.382 263.268 298.752 258.353 292.227C252.971 284.233 251.092 276.461 252.801 266.96C254.935 257.644 261.306 251.764 267.878 245.26C268.658 244.483 269.438 243.706 270.217 242.929C271.886 241.266 273.558 239.605 275.23 237.945C277.876 235.319 280.516 232.688 283.156 230.056C289.71 223.524 296.269 216.998 302.831 210.475C307.94 205.396 313.047 200.316 318.147 195.229C320.77 192.613 323.397 190.001 326.028 187.393C327.662 185.771 329.293 184.144 330.922 182.517C331.678 181.764 332.435 181.013 333.194 180.263C334.23 179.238 335.261 178.208 336.291 177.176C336.869 176.602 337.446 176.027 338.042 175.435C340.706 172.357 341.712 169.726 341.551 165.732C341.159 162.706 339.843 160.804 337.586 158.867C335.355 157.206 334.299 156.759 331.57 156.68C331.052 156.656 330.534 156.633 330.001 156.609C325.615 157.276 322.563 160.418 319.576 163.448ZM295.701 244.109C295.039 244.765 294.378 245.42 293.716 246.076C292.334 247.446 290.956 248.82 289.581 250.197C287.826 251.952 286.058 253.694 284.287 255.433C282.917 256.782 281.557 258.139 280.198 259.498C279.55 260.144 278.899 260.786 278.245 261.426C273.062 266.445 273.062 266.445 270.75 273.125C270.96 276.699 272.384 278.956 274.73 281.597C276.748 283.383 278.543 283.951 281.219 284.023C281.718 284.048 282.218 284.073 282.732 284.099C288.259 283.008 292.254 278.148 296.053 274.321C296.67 273.705 297.287 273.09 297.905 272.474C299.192 271.19 300.475 269.903 301.756 268.613C303.39 266.969 305.033 265.332 306.678 263.699C307.952 262.431 309.222 261.159 310.49 259.886C311.093 259.281 311.698 258.678 312.305 258.076C317.537 253.084 317.537 253.084 320.457 246.621C320.404 243.072 319.722 241.016 317.625 238.125C315.199 235.876 313.267 234.914 309.969 234.805C309.514 234.781 309.06 234.758 308.592 234.734C303.176 235.639 299.407 240.411 295.701 244.109ZM323.724 272.94C322.247 274.29 320.842 275.687 319.446 277.122C318.932 277.637 318.417 278.153 317.886 278.684C316.805 279.771 315.729 280.862 314.657 281.958C313.018 283.631 311.364 285.289 309.708 286.945C308.656 288.005 307.605 289.067 306.556 290.129C306.064 290.624 305.571 291.118 305.064 291.627C300.708 296.031 300.708 296.031 299.266 301.875C299.432 305.384 300.826 307.75 303.289 310.195C305.548 312.014 307.577 312.415 310.42 312.678C317.888 311.836 324.455 302.679 329.544 297.606C330.679 296.477 331.82 295.355 332.962 294.233C333.695 293.505 334.427 292.775 335.159 292.046C335.496 291.717 335.832 291.388 336.179 291.049C338.733 288.481 340.98 285.726 341.707 282.087C341.65 277.716 340.604 275.479 337.469 272.344C332.746 269.339 328.244 269.505 323.724 272.94ZM341.773 311.748C341.424 312.093 341.075 312.439 340.715 312.794C339.984 313.52 339.257 314.25 338.533 314.982C337.431 316.092 336.315 317.187 335.197 318.281C334.484 318.993 333.773 319.706 333.062 320.42C332.732 320.742 332.402 321.064 332.062 321.395C329.446 324.077 327.686 327.079 327.584 330.94C328.542 334.857 330.304 337.941 333.807 340.105C335.332 340.707 336.534 340.834 338.172 340.859C338.943 340.886 338.943 340.886 339.73 340.913C343.567 340.241 346.353 337.083 349.002 334.414C349.354 334.063 349.707 333.712 350.07 333.35C350.809 332.612 351.546 331.872 352.282 331.131C353.407 329.999 354.539 328.874 355.672 327.749C356.392 327.028 357.111 326.307 357.83 325.586C358.167 325.251 358.505 324.917 358.852 324.572C361.431 321.961 362.799 320.096 362.898 316.406C362.827 312.961 361.741 310.707 359.5 308.125C357.338 306.263 355.103 305.893 352.359 305.452C348.044 305.916 344.72 308.773 341.773 311.748Z" fill="#2E81F2"/>
<path d="M215.75 105C218.746 106.246 220.123 108.345 221.375 111.25C221.692 113.502 221.692 113.502 221.698 115.923C221.703 116.367 221.707 116.812 221.712 117.27C221.723 118.727 221.715 120.184 221.707 121.641C221.709 122.661 221.711 123.681 221.714 124.701C221.718 126.834 221.713 128.967 221.701 131.1C221.687 133.826 221.695 136.551 221.71 139.277C221.719 141.382 221.716 143.487 221.709 145.592C221.708 146.596 221.71 147.601 221.716 148.606C221.722 150.013 221.712 151.42 221.698 152.827C221.695 154.025 221.695 154.025 221.692 155.247C221.238 158.474 220.03 160.885 217.508 163.047C214.137 164.395 211.29 164.705 207.781 163.711C205.251 162.203 203.25 160.529 202.236 157.644C201.917 155.762 201.905 153.939 201.889 152.029C201.885 151.61 201.881 151.191 201.877 150.759C201.865 149.377 201.857 147.994 201.851 146.611C201.848 146.137 201.846 145.663 201.843 145.174C201.83 142.664 201.821 140.154 201.815 137.644C201.809 135.06 201.787 132.477 201.762 129.894C201.746 127.899 201.741 125.905 201.738 123.91C201.735 122.958 201.728 122.006 201.717 121.054C201.61 111.787 201.61 111.787 204.5 107.5C207.632 104.368 211.551 104.373 215.75 105Z" fill="#2E81F2"/>
<path d="M161.531 134.805C162.115 134.781 162.698 134.758 163.299 134.734C167.923 135.408 171.16 139.576 174.305 142.734C174.779 143.198 175.253 143.663 175.741 144.141C178.455 146.852 180.891 149.294 181.624 153.203C181.575 157.106 180.57 159.478 177.859 162.383C175.548 164.155 173.001 164.669 170.125 164.375C165.465 163.065 162.616 159.714 159.305 156.328C158.739 155.767 158.173 155.205 157.59 154.626C152.182 149.166 152.182 149.166 151.805 144.414C151.88 141.925 152.488 140.229 153.875 138.125C156.476 135.778 158.055 134.895 161.531 134.805Z" fill="#2E81F2"/>
<path d="M266.439 135.452C268.874 136.732 270.319 138.102 271.375 140.625C272.388 144.389 271.833 147.204 270.125 150.625C268.389 152.873 266.422 154.824 264.383 156.797C263.867 157.322 263.351 157.848 262.819 158.389C259.617 161.548 256.688 164.232 251.97 164.428C248.252 164.164 245.79 162.669 243.328 159.961C242.243 157.126 242.186 154.244 242.625 151.25C243.86 148.906 245.328 147.137 247.193 145.266C247.711 144.746 248.23 144.226 248.764 143.69C249.573 142.888 249.573 142.888 250.399 142.07C250.935 141.529 251.472 140.987 252.026 140.429C252.545 139.911 253.064 139.393 253.599 138.86C254.072 138.389 254.544 137.918 255.031 137.433C258.303 134.555 262.306 134.031 266.439 135.452Z" fill="#2E81F2"/>
</g>
<defs>
<clipPath id="clip0_386_62">
<rect width="320" height="320" fill="white" transform="translate(87 105)"/>
</clipPath>
</defs>
</svg>
