<svg width="48" height="48" viewBox="0 0 48 48" fill="none" xmlns="http://www.w3.org/2000/svg">
<g clip-path="url(#clip0_370_72)">
<path d="M32 0H16C7.16344 0 0 7.16344 0 16V32C0 40.8366 7.16344 48 16 48H32C40.8366 48 48 40.8366 48 32V16C48 7.16344 40.8366 0 32 0Z" fill="#4169E1"/>
<path d="M25.4332 16.9208C25.4332 21.8729 21.4188 25.8875 16.4666 25.8875C11.5145 25.8875 7.5 21.8729 7.5 16.9208C7.5 11.9686 11.5145 7.9541 16.4666 7.9541C21.4188 7.9541 25.4332 11.9686 25.4332 16.9208Z" fill="#FF7262"/>
<path d="M12.3599 32.9269H12.1001C11.6498 32.9269 11.2167 32.8835 10.801 32.7969C10.3854 32.7103 10.013 32.5545 9.68387 32.3293C9.37209 32.1041 9.11229 31.7923 8.90445 31.3939C8.71391 30.9955 8.61865 30.4759 8.61865 29.8351V17.1825C8.61865 16.559 8.71391 16.048 8.90445 15.6496C9.09497 15.2513 9.34611 14.9395 9.65789 14.7143C9.96965 14.4718 10.3247 14.3073 10.7231 14.2207C11.1215 14.1168 11.5285 14.0648 11.9442 14.0648H12.3599V32.9269ZM12.9055 22.1189H15.2178C15.2178 22.5173 15.1831 22.8809 15.1138 23.2101C15.0619 23.5391 14.9493 23.8335 14.7761 24.0933C14.6202 24.3359 14.4037 24.5263 14.1266 24.6649C13.8495 24.8035 13.4944 24.8727 13.0614 24.8727H12.9055V22.1189ZM18.0497 16.533C18.0497 17.0872 17.9457 17.5289 17.7379 17.858C17.5301 18.1871 17.2789 18.4469 16.9845 18.6374C16.69 18.8279 16.3782 18.9578 16.0492 19.0271C15.7201 19.0791 15.4343 19.1051 15.1918 19.1051C14.9839 19.1051 14.8107 19.0878 14.6722 19.0531V17.858C14.6722 17.5462 14.5942 17.2951 14.4383 17.1046C14.2825 16.8967 14.0573 16.7928 13.7629 16.7928C13.4338 16.7928 13.1566 16.8967 12.9315 17.1046C12.8795 16.966 12.8449 16.8447 12.8275 16.7408C12.8275 16.6196 12.8275 16.4897 12.8275 16.3511C12.8275 16.1086 12.8708 15.8488 12.9574 15.5717C13.0614 15.2946 13.2086 15.0434 13.3991 14.8183C13.607 14.5931 13.8668 14.4112 14.1785 14.2727C14.5076 14.1168 14.8973 14.0388 15.3477 14.0388C15.7114 14.0388 16.0578 14.0994 16.3869 14.2207C16.716 14.3419 17.0018 14.5151 17.2443 14.7403C17.4868 14.9655 17.6773 15.2339 17.8158 15.5457C17.9717 15.8402 18.0497 16.1692 18.0497 16.533Z" fill="white"/>
<path d="M22.8293 28.8738C22.8293 29.0816 22.8379 29.2808 22.8553 29.4712C22.8899 29.6618 22.9419 29.835 23.0111 29.991C23.0979 30.1294 23.2103 30.2508 23.3489 30.3546C23.5049 30.4412 23.7127 30.4846 23.9725 30.4846C24.1111 30.4846 24.2497 30.4672 24.3881 30.4326C24.5441 30.3806 24.6827 30.3026 24.8039 30.1988C24.8731 30.3374 24.9165 30.4758 24.9337 30.6144C24.9511 30.7356 24.9597 30.8656 24.9597 31.0042C24.9597 31.5584 24.7259 32.0174 24.2583 32.3812C23.7907 32.7448 23.2277 32.9268 22.5695 32.9268C21.5303 32.9268 20.7335 32.6496 20.1793 32.0954C19.625 31.541 19.3479 30.8482 19.3479 30.0168V22.7942C19.3479 22.2226 19.4518 21.7464 19.6597 21.3652C19.8848 20.967 20.1619 20.6464 20.4911 20.404C20.8375 20.1616 21.2099 19.9883 21.6083 19.8844C22.0239 19.7805 22.4309 19.7285 22.8293 19.7285V28.8738ZM25.2715 23.7816C25.2715 23.5736 25.2543 23.3744 25.2195 23.184C25.2023 22.9934 25.1503 22.8288 25.0637 22.6904C24.9943 22.5344 24.8819 22.4132 24.7259 22.3266C24.5873 22.2226 24.3881 22.1706 24.1283 22.1706C23.9899 22.1706 23.8425 22.1966 23.6867 22.2486C23.5481 22.2832 23.4183 22.3526 23.2969 22.4564C23.2277 22.318 23.1845 22.188 23.1671 22.0668C23.1497 21.9282 23.1411 21.7896 23.1411 21.651C23.1411 21.0968 23.3749 20.6378 23.8425 20.2742C24.3103 19.9104 24.8731 19.7285 25.5313 19.7285C26.5705 19.7285 27.3673 19.997 27.9215 20.534C28.4759 21.0536 28.7529 21.807 28.7529 22.7942V33.4724C28.7529 33.9226 28.6491 34.3296 28.4411 34.6934C28.2507 35.0744 27.9909 35.4036 27.6617 35.6806C27.3327 35.9578 26.9603 36.1744 26.5445 36.3302C26.1289 36.486 25.7045 36.564 25.2715 36.564V23.7816ZM21.0627 37.5512C21.0627 37.0144 21.1665 36.5726 21.3745 36.2262C21.5823 35.8972 21.8335 35.6374 22.1279 35.4468C22.4223 35.2564 22.7341 35.1264 23.0631 35.0572C23.3923 35.0052 23.6781 34.9792 23.9205 34.9792C24.1283 34.9792 24.3015 34.9966 24.4401 35.0312V36.2262C24.4401 36.59 24.5267 36.8584 24.6999 37.0316C24.8731 37.2048 25.0897 37.2914 25.3495 37.2914C25.6613 37.2914 25.9383 37.1876 26.1809 36.9798C26.2329 37.1182 26.2587 37.2396 26.2587 37.3434C26.2761 37.4646 26.2847 37.5946 26.2847 37.7332C26.2847 37.941 26.2329 38.1748 26.1289 38.4346C26.0423 38.7118 25.8951 38.963 25.6873 39.188C25.4967 39.4306 25.2369 39.6298 24.9077 39.7856C24.5961 39.9588 24.2149 40.0454 23.7647 40.0454C23.2969 40.0454 22.8899 39.9676 22.5435 39.8116C22.2145 39.6558 21.9373 39.4566 21.7121 39.214C21.5043 38.9888 21.3397 38.729 21.2185 38.4346C21.1147 38.1402 21.0627 37.8458 21.0627 37.5512Z" fill="white"/>
<path d="M34.5764 28.8219C34.5764 29.0297 34.585 29.2289 34.6024 29.4195C34.637 29.6099 34.689 29.7831 34.7582 29.9391C34.8448 30.0777 34.9574 30.1989 35.096 30.3027C35.2518 30.3893 35.4598 30.4327 35.7196 30.4327C35.858 30.4327 35.9966 30.4153 36.1352 30.3807C36.2912 30.3287 36.4296 30.2509 36.551 30.1469C36.6202 30.2855 36.6636 30.4241 36.6808 30.5625C36.6982 30.6839 36.7068 30.8137 36.7068 30.9523C36.7068 31.5065 36.4816 31.9741 36.0314 32.3553C35.581 32.7363 34.966 32.9269 34.1866 32.9269C33.2514 32.9269 32.498 32.6411 31.9264 32.0695C31.372 31.4805 31.095 30.6405 31.095 29.5493V14.0388H31.2508C32.29 14.0388 33.1042 14.29 33.693 14.7923C34.282 15.2772 34.5764 16.0653 34.5764 17.1565V28.8219ZM40.5 33.3685C40.5 34.4423 40.1882 35.2131 39.5646 35.6807C38.9584 36.1657 38.205 36.4083 37.3044 36.4083H37.0186V19.7546H37.1744C37.5556 19.7546 37.9452 19.8066 38.3436 19.9105C38.742 20.0143 39.097 20.1877 39.4088 20.4301C39.7378 20.6553 39.9976 20.9583 40.1882 21.3395C40.396 21.7205 40.5 22.1795 40.5 22.7163V33.3685ZM32.6538 37.5255C32.6538 36.9885 32.7578 36.5469 32.9656 36.2003C33.1734 35.8713 33.4246 35.6115 33.719 35.4209C34.0134 35.2305 34.3252 35.1005 34.6544 35.0313C34.9834 34.9793 35.2692 34.9533 35.5116 34.9533C35.7196 34.9533 35.8928 34.9707 36.0314 35.0053V36.2003C36.0314 36.5641 36.118 36.8325 36.2912 37.0057C36.4644 37.1791 36.6808 37.2657 36.9406 37.2657C37.2524 37.2657 37.5296 37.1617 37.772 36.9539C37.824 37.0925 37.85 37.2137 37.85 37.3175C37.8672 37.4389 37.876 37.5687 37.876 37.7073C37.876 37.9151 37.824 38.1489 37.72 38.4087C37.6334 38.6859 37.4862 38.9371 37.2784 39.1621C37.0878 39.4047 36.828 39.6039 36.499 39.7597C36.1872 39.9329 35.8062 40.0195 35.3558 40.0195C34.8882 40.0195 34.4812 39.9417 34.1348 39.7857C33.8056 39.6299 33.5284 39.4307 33.3034 39.1881C33.0954 38.9631 32.931 38.7033 32.8096 38.4087C32.7058 38.1143 32.6538 37.8199 32.6538 37.5255Z" fill="white"/>
</g>
<defs>
<clipPath id="clip0_370_72">
<rect width="48" height="48" fill="white"/>
</clipPath>
</defs>
</svg>
